<svg width="275" height="80" viewBox="0 0 275 80" fill="none" xmlns="http://www.w3.org/2000/svg">
<g filter="url(#filter0_d_106_2)">
<path d="M17.25 20.0417H28.875C30.5139 20.0417 31.8194 20.5417 32.7917 21.5417C33.7917 22.5139 34.2917 23.8194 34.2917 25.4583V35.375C34.2917 36.625 34 37.6944 33.4167 38.5833C32.8333 39.4444 32.0278 40.0556 31 40.4167L35.5417 55.9583H31.5C30.8611 55.9583 30.2917 55.7778 29.7917 55.4167C29.3194 55.0556 29 54.5694 28.8333 53.9583L25 40.7917H22.9167V55.9583H17.25V20.0417ZM22.9167 35.1667H26.5417C27.1806 35.1667 27.6806 34.9861 28.0417 34.625C28.4306 34.2361 28.625 33.7222 28.625 33.0833V27.75C28.625 27.1111 28.4306 26.6111 28.0417 26.25C27.6806 25.8611 27.1806 25.6667 26.5417 25.6667H22.9167V35.1667ZM41.8789 26.0417C41.8789 24.1528 42.4484 22.6389 43.5872 21.5C44.7261 20.3611 46.24 19.7917 48.1289 19.7917H53.2539C55.1428 19.7917 56.6567 20.3611 57.7956 21.5C58.9345 22.6389 59.5039 24.1528 59.5039 26.0417V49.9583C59.5039 51.8472 58.9345 53.3611 57.7956 54.5C56.6567 55.6389 55.1428 56.2083 53.2539 56.2083H48.1289C46.24 56.2083 44.7261 55.6389 43.5872 54.5C42.4484 53.3611 41.8789 51.8472 41.8789 49.9583V26.0417ZM49.1289 50.5417H52.2539C52.6984 50.5417 53.0734 50.3889 53.3789 50.0833C53.6845 49.7778 53.8372 49.4028 53.8372 48.9583V27.25C53.8372 26.6667 53.6845 26.2222 53.3789 25.9167C53.0734 25.6111 52.6984 25.4583 52.2539 25.4583H49.1289C48.6845 25.4583 48.3095 25.6111 48.0039 25.9167C47.6984 26.2222 47.5456 26.6667 47.5456 27.25V48.9583C47.5456 49.4028 47.6984 49.7778 48.0039 50.0833C48.3095 50.3889 48.6845 50.5417 49.1289 50.5417Z" fill="#E53424"/>
<path d="M130 20.0417C131.889 20.0417 133.403 20.6111 134.542 21.75C135.681 22.8889 136.25 24.4028 136.25 26.2917V49.75C136.25 51.6389 135.681 53.1528 134.542 54.2917C133.403 55.4306 131.889 56 130 56H119.25V20.0417H130ZM124.917 25.6667V50.3333H129C129.417 50.3333 129.778 50.1806 130.083 49.875C130.417 49.5417 130.583 49.1667 130.583 48.75V27.25C130.583 26.8333 130.417 26.4722 130.083 26.1667C129.778 25.8333 129.417 25.6667 129 25.6667H124.917ZM150.129 19.7917H155.254C157.143 19.7917 158.657 20.3611 159.796 21.5C160.934 22.6389 161.504 24.1528 161.504 26.0417V49.9583C161.504 51.7917 160.962 53.2778 159.879 54.4167C158.796 55.5556 157.351 56.1528 155.546 56.2083V62.25L153.046 61.4167C152.073 61.1111 151.296 60.5556 150.712 59.75C150.157 58.9444 149.879 58.0417 149.879 57.0417V56.2083C148.046 56.1528 146.587 55.5556 145.504 54.4167C144.421 53.2778 143.879 51.7917 143.879 49.9583V26.0417C143.879 24.1528 144.448 22.6389 145.587 21.5C146.726 20.3611 148.24 19.7917 150.129 19.7917ZM151.129 50.5417H154.254C154.698 50.5417 155.073 50.3889 155.379 50.0833C155.684 49.7778 155.837 49.4028 155.837 48.9583V27.25C155.837 26.6667 155.684 26.2222 155.379 25.9167C155.073 25.6111 154.698 25.4583 154.254 25.4583H151.129C150.684 25.4583 150.309 25.6111 150.004 25.9167C149.698 26.2222 149.546 26.6667 149.546 27.25V48.9583C149.546 49.4028 149.698 49.7778 150.004 50.0833C150.309 50.3889 150.684 50.5417 151.129 50.5417ZM174.907 20.0417V48.25C174.907 48.8889 175.087 49.4028 175.449 49.7917C175.837 50.1528 176.351 50.3333 176.99 50.3333H178.824C179.462 50.3333 179.962 50.1528 180.324 49.7917C180.712 49.4028 180.907 48.8889 180.907 48.25V20.0417H186.574V49.75C186.574 51.6389 186.004 53.1528 184.865 54.2917C183.726 55.4306 182.212 56 180.324 56H175.49C173.601 56 172.087 55.4306 170.949 54.2917C169.81 53.1528 169.24 51.6389 169.24 49.75V20.0417H174.907ZM194.846 20H210.429V25.6667H200.512V35.1667H208.137V37.5C208.137 38.5 207.832 39.3056 207.221 39.9167C206.61 40.5278 205.804 40.8333 204.804 40.8333H200.512V50.3333H210.429V56H194.846V20ZM217.131 32.5V26.0417C217.131 24.1528 217.7 22.6389 218.839 21.5C219.978 20.3611 221.492 19.7917 223.381 19.7917H227.923C229.811 19.7917 231.325 20.3611 232.464 21.5C233.603 22.6389 234.173 24.1528 234.173 26.0417V31.375L228.548 29.4583V27.5C228.548 26.8611 228.353 26.3611 227.964 26C227.603 25.6111 227.103 25.4167 226.464 25.4167H224.839C224.2 25.4167 223.686 25.6111 223.298 26C222.936 26.3611 222.756 26.8611 222.756 27.5V31.6667C222.756 32.5556 223.02 33.3056 223.548 33.9167C224.075 34.5278 224.77 34.9028 225.631 35.0417L227.173 35.2917C228.228 35.4583 229.186 35.7778 230.048 36.25C230.909 36.7222 231.645 37.3194 232.256 38.0417C232.867 38.7639 233.339 39.5972 233.673 40.5417C234.006 41.4583 234.173 42.4444 234.173 43.5V49.9583C234.173 51.8472 233.603 53.3611 232.464 54.5C231.325 55.6389 229.811 56.2083 227.923 56.2083H223.381C221.492 56.2083 219.978 55.6389 218.839 54.5C217.7 53.3611 217.131 51.8472 217.131 49.9583V46.5417H222.756V48.5C222.756 49.1389 222.936 49.6528 223.298 50.0417C223.686 50.4028 224.2 50.5833 224.839 50.5833H226.464C227.103 50.5833 227.603 50.4028 227.964 50.0417C228.353 49.6528 228.548 49.1389 228.548 48.5V44.3333C228.548 43.4444 228.284 42.6944 227.756 42.0833C227.228 41.4722 226.534 41.0972 225.673 40.9583L224.131 40.7083C223.075 40.5417 222.117 40.2222 221.256 39.75C220.395 39.2778 219.659 38.6806 219.048 37.9583C218.436 37.2361 217.964 36.4167 217.631 35.5C217.298 34.5556 217.131 33.5556 217.131 32.5ZM239.976 20.0417H257.726V25.6667H251.684V56H246.018V25.6667H239.976V20.0417Z" fill="#E53424"/>
<path d="M79.1887 21H98.8113L109 57H69L79.1887 21Z" fill="#E53424"/>
<rect x="88" y="24" width="2" height="5" fill="white"/>
<rect x="88" y="31" width="2" height="8" fill="white"/>
<rect x="88" y="41" width="2" height="13" fill="white"/>
</g>
<defs>
<filter id="filter0_d_106_2" x="-4" y="0" width="283" height="88" filterUnits="userSpaceOnUse" color-interpolation-filters="sRGB">
<feFlood flood-opacity="0" result="BackgroundImageFix"/>
<feColorMatrix in="SourceAlpha" type="matrix" values="0 0 0 0 0 0 0 0 0 0 0 0 0 0 0 0 0 0 127 0" result="hardAlpha"/>
<feOffset dy="4"/>
<feGaussianBlur stdDeviation="2"/>
<feComposite in2="hardAlpha" operator="out"/>
<feColorMatrix type="matrix" values="0 0 0 0 0 0 0 0 0 0 0 0 0 0 0 0 0 0 0.25 0"/>
<feBlend mode="normal" in2="BackgroundImageFix" result="effect1_dropShadow_106_2"/>
<feBlend mode="normal" in="SourceGraphic" in2="effect1_dropShadow_106_2" result="shape"/>
</filter>
</defs>
</svg>
